<svg width="345" height="249" viewBox="0 0 345 249" fill="none" xmlns="http://www.w3.org/2000/svg">
<path d="M67.9217 0.818665L56.4626 29.4664L45.0035 0.818665H36V42.9717H39.6832V9.00372L54.4164 44.6087L68.7402 9.00372V42.9717H76.1068V0.818665H67.9217Z" fill="black"/>
<path d="M101.89 0L84.7014 42.9716H88.3847L92.4773 32.331L92.8865 31.5125L93.705 29.057L94.5235 27.0107L99.8438 13.9146L105.164 27.0107L105.983 29.057L107.21 31.5125L108.438 35.1958L111.712 42.9716H119.897L101.89 0Z" fill="black"/>
<path d="M136.267 39.6977V0.818665H128.491V42.9717H154.274V39.6977H136.267Z" fill="black"/>
<path d="M173.509 0L156.321 42.9716H160.004L163.687 33.968L164.506 31.5125L165.734 29.057V28.2385L171.463 13.9146L177.193 28.2385L178.83 31.5125L180.467 35.1958L183.331 42.9716H191.516L173.509 0Z" fill="black"/>
<path d="M227.53 24.5553C225.893 22.5091 223.847 21.2813 220.982 20.4628C223.438 20.0536 225.075 18.8258 226.303 17.1888C227.53 15.5518 228.349 13.9148 228.349 11.4593C228.349 9.41299 227.94 7.77598 226.712 6.13897C225.893 4.50195 224.256 3.27419 222.619 2.45568C221.801 2.04643 220.164 1.63718 218.527 1.22793C216.89 0.818674 214.844 0.818665 211.979 0.818665H199.701V42.5625H214.434C219.345 42.5625 223.438 41.744 225.893 39.6977C228.349 37.6514 229.577 35.1959 229.577 31.1034C229.986 28.6479 229.168 26.6016 227.53 24.5553ZM207.886 3.68344H211.16C214.434 3.68344 217.299 4.50194 218.936 5.7297C220.573 6.95746 221.392 9.00373 221.392 11.8685C221.392 14.7333 220.573 16.7795 219.345 18.0073C217.708 19.2351 215.662 20.0536 211.979 20.0536H208.296V3.68344H207.886ZM220.164 38.0607C218.527 39.2884 216.071 40.1069 212.797 40.1069H207.886V22.0998H211.57C215.253 22.0998 217.708 22.9183 219.755 24.5553C221.392 26.1924 222.619 28.6479 222.619 31.9219C222.619 34.7867 221.801 36.8329 220.164 38.0607Z" fill="black"/>
<path d="M253.722 0L236.534 42.9716H240.217L243.9 33.1495L244.31 31.5125L245.537 29.057L246.356 27.4199L251.676 13.9146L257.406 27.8292L259.043 31.5125L259.452 33.1495L263.135 42.9716H271.729L253.722 0Z" fill="black"/>
<path d="M298.74 23.3274C302.014 23.3274 304.879 22.0996 306.925 20.4626C308.972 18.8256 309.79 16.3701 309.79 13.5053C309.79 9.41278 308.562 6.54801 305.698 4.50174C303.242 2.45548 299.149 1.22772 293.829 1.22772H279.915V42.9715H287.69V3.68323H290.964C294.648 3.68323 297.512 4.50175 299.149 6.13876C300.787 7.77577 302.014 9.82202 302.014 13.096C302.014 15.9608 301.196 18.0071 299.149 19.2348C297.512 20.4626 294.238 21.2811 289.737 21.6904L301.196 42.9715H309.79L298.74 23.3274Z" fill="black"/>
<path d="M7.77578 106.815V68.3452H0V110.089H26.1922V106.815H7.77578Z" fill="black"/>
<path d="M42.1533 68.3452H34.3774V110.089H42.1533V68.3452Z" fill="black"/>
<path d="M51.1565 68.3452V71.21H62.2063V110.089H69.9821V71.21H81.032V68.3452H51.1565Z" fill="black"/>
<path d="M115.819 71.21V68.3452H90.036V110.089H115.819V106.815H97.8118V89.6264H114.591V86.7616H97.8118V71.21H115.819Z" fill="black"/>
<path d="M146.922 90.4449C150.196 90.4449 153.06 89.2171 155.107 87.5801C157.153 85.9431 157.971 83.4876 157.971 80.6228C157.971 76.5303 156.744 73.6655 153.879 71.6193C151.423 69.573 147.331 68.3452 142.011 68.3452H128.096V110.089H135.872V70.8007H139.146C142.829 70.8007 145.694 71.6193 147.331 73.2563C148.968 74.8933 150.196 76.9395 150.196 80.2136C150.196 83.0783 149.377 85.1246 147.331 86.3524C145.694 87.5801 142.42 88.3986 137.918 88.8079L149.377 110.089H157.971L146.922 90.4449Z" fill="black"/>
<path d="M178.434 67.527L161.246 110.089H164.929L168.203 100.677L169.022 99.0395L170.249 96.1747L170.659 94.947L171.068 94.5377L176.388 81.0324L182.118 95.7655L182.527 96.1747L183.345 99.0395H183.755L184.573 101.086V101.495L187.847 110.089H196.032L178.434 67.527Z" fill="black"/>
<path d="M196.441 68.3452V71.21H207.082V110.089H214.858V71.21H225.907V68.3452H196.441Z" fill="black"/>
<path d="M260.694 68.3452V93.7189C260.694 98.63 259.875 101.904 258.648 103.95C257.42 105.997 254.964 106.815 251.69 106.815C248.416 106.815 245.961 105.997 244.733 103.95C243.505 101.904 242.687 98.63 242.687 93.7189V68.3452H234.911V94.9467C234.911 98.2207 235.32 100.267 235.729 102.313C236.139 103.95 237.366 105.587 238.594 106.815C239.822 108.043 241.459 109.271 243.505 110.089C245.551 110.908 247.598 111.317 250.053 111.317C254.964 111.317 258.648 110.089 261.103 107.224C263.559 104.359 264.786 100.676 264.786 94.9467V68.3452H260.694Z" fill="black"/>
<path d="M296.708 90.4449C300.391 90.4449 302.847 89.2171 304.893 87.5801C306.939 85.9431 307.758 83.4876 307.758 80.6228C307.758 76.5303 306.53 73.6655 303.665 71.6193C300.8 69.573 297.117 68.3452 291.797 68.3452H277.882V110.089H285.658V70.8007H288.932C292.615 70.8007 295.071 71.6193 297.117 73.2563C298.754 74.8933 299.982 76.9395 299.982 80.2136C299.982 83.0783 299.163 85.1246 297.117 86.3524C295.48 87.5801 292.206 88.3986 287.704 88.8079L299.163 110.089H307.758L296.708 90.4449Z" fill="black"/>
<path d="M345 71.21V68.3452H319.217V110.089H345V106.815H326.993V89.6264H343.772V86.7616H326.993V71.21H345Z" fill="black"/>
<path d="M66.6014 138.328V135.463H40V177.207H47.7758V156.744H65.7829V153.879H47.7758V138.328H66.6014Z" fill="black"/>
<path d="M103.025 138.328V135.463H76.8326V177.207H103.025V174.342H84.6084V157.153H101.797V153.879H84.6084V138.328H103.025Z" fill="black"/>
<path d="M137.402 158.381C135.765 156.744 132.9 154.698 128.398 152.652C125.534 151.424 123.487 150.196 122.26 148.968C121.032 147.741 120.623 146.513 120.623 144.876C120.623 142.83 121.032 141.193 122.669 139.965C124.306 138.737 125.534 137.919 127.58 137.919C129.626 137.919 131.263 138.328 132.491 139.556C133.719 140.783 134.947 142.011 135.765 144.057L138.63 142.011C137.402 139.556 135.765 137.919 133.719 136.281C131.673 135.054 129.217 134.235 125.943 134.235C122.26 134.235 118.986 135.463 116.53 137.919C114.075 140.374 112.847 143.239 112.847 146.922C112.847 149.378 113.665 151.833 114.893 153.47C116.121 155.107 118.576 156.744 122.26 157.972C128.398 160.427 131.673 163.701 131.673 166.975C131.673 169.022 130.854 171.068 129.626 172.296C128.398 173.524 126.352 174.342 124.306 174.342C122.669 174.342 121.032 173.933 119.804 172.705C118.167 171.886 117.349 170.249 116.121 168.612L112.847 170.659C114.484 173.114 116.121 174.751 118.167 175.979C120.213 177.207 122.669 177.616 125.534 177.616C129.626 177.616 132.9 176.388 135.356 173.933C137.811 171.477 139.039 168.203 139.039 164.52C139.448 162.474 139.039 160.018 137.402 158.381Z" fill="black"/>
<path d="M145.997 135.463V138.328H157.047V177.207H164.822V138.328H175.463V135.463H145.997Z" fill="black"/>
<path d="M192.652 135.463H184.876V177.207H192.652V135.463Z" fill="black"/>
<path d="M231.121 135.463L220.481 164.11L209.431 135.463H200.837L218.435 178.434L235.214 135.463H231.121Z" fill="black"/>
<path d="M252.811 134.644L235.623 177.207H239.306L242.989 168.203L243.808 166.157L244.626 163.701L245.036 162.474L250.765 148.15L256.085 161.655L258.132 166.157L258.95 167.794V168.612L262.633 177.207H270.818L252.811 134.644Z" fill="black"/>
<path d="M287.189 174.342V135.463H279.413V177.207H305.196V174.342H287.189Z" fill="black"/>
<path d="M51.1123 218.568H49.1914L41.6256 207.259V218.568H39.8811V204.456H41.802L49.3874 215.902V204.456H51.1123V218.568ZM53.7014 213.276C53.7014 211.656 54.1391 210.329 55.0146 209.297C55.8901 208.265 57.1903 207.749 58.9151 207.749C60.4309 207.749 61.6788 208.206 62.6588 209.121C63.6389 210.022 64.1289 211.407 64.1289 213.276C64.1289 214.896 63.6911 216.223 62.8156 217.255C61.9401 218.287 60.64 218.803 58.9151 218.803C57.3993 218.803 56.1514 218.352 55.1714 217.451C54.1914 216.536 53.7014 215.144 53.7014 213.276ZM62.404 213.276C62.4432 212.061 62.1427 211.074 61.5024 210.316C60.8752 209.545 60.0062 209.179 58.8955 209.219C57.7587 209.219 56.8963 209.571 56.3082 210.277C55.7202 210.983 55.4262 211.982 55.4262 213.276C55.387 214.491 55.681 215.484 56.3082 216.255C56.9485 217.026 57.824 217.385 58.9347 217.333C60.0716 217.333 60.934 216.98 61.522 216.275C62.11 215.569 62.404 214.57 62.404 213.276ZM68.9762 218.588L65.3109 207.984H67.0945L70.015 216.745H70.113L73.0139 207.984H74.778L71.0735 218.588H68.9762ZM116.516 218.568H111.909V204.456H116.516C118.502 204.456 120.096 205.076 121.298 206.318C122.513 207.546 123.121 209.284 123.121 211.531C123.121 213.779 122.513 215.517 121.298 216.745C120.096 217.96 118.502 218.568 116.516 218.568ZM120.004 215.53C120.893 214.524 121.337 213.191 121.337 211.531C121.337 209.872 120.893 208.533 120.004 207.513C119.116 206.494 117.888 205.984 116.32 205.984H113.634V217.039H116.32C117.888 217.039 119.116 216.536 120.004 215.53ZM134.252 216.628V218.117C132.879 218.575 131.547 218.803 130.253 218.803C128.541 218.803 127.254 218.352 126.392 217.451C125.542 216.549 125.118 215.151 125.118 213.256C125.118 211.466 125.536 210.101 126.372 209.16C127.208 208.219 128.417 207.749 129.998 207.749C131.501 207.749 132.625 208.173 133.369 209.023C134.114 209.872 134.487 211.172 134.487 212.923V213.727H126.843C126.856 216.118 128.11 217.314 130.606 217.314C131.756 217.314 132.971 217.085 134.252 216.628ZM126.823 212.472H132.762C132.762 210.238 131.815 209.121 129.92 209.121C129.097 209.068 128.365 209.343 127.725 209.944C127.097 210.545 126.797 211.388 126.823 212.472ZM141.821 217.314C142.775 217.314 143.813 217.137 144.937 216.784V218.294C143.8 218.633 142.683 218.803 141.586 218.803C140.893 218.803 140.253 218.712 139.665 218.529C139.077 218.346 138.528 218.052 138.018 217.647C137.522 217.242 137.123 216.667 136.823 215.922C136.535 215.177 136.391 214.295 136.391 213.276C136.391 211.525 136.816 210.186 137.665 209.258C138.632 208.252 139.939 207.749 141.586 207.749C142.722 207.749 143.84 207.925 144.937 208.278V209.787C143.8 209.421 142.762 209.238 141.821 209.238C140.619 209.238 139.697 209.584 139.057 210.277C138.43 210.97 138.116 211.969 138.116 213.276C138.116 214.609 138.443 215.615 139.096 216.294C139.763 216.974 140.671 217.314 141.821 217.314Z" fill="black"/>
<path d="M262.363 218.568H253.562V217.137C255.457 215.569 256.822 214.334 257.659 213.433C259.266 211.695 260.07 210.146 260.07 208.787C260.07 207.847 259.776 207.108 259.188 206.572C258.6 206.037 257.796 205.769 256.777 205.769C255.888 205.769 254.889 205.919 253.778 206.22V204.632C254.967 204.358 256.065 204.22 257.071 204.22C258.639 204.22 259.821 204.612 260.618 205.396C261.429 206.167 261.834 207.265 261.834 208.689C261.834 209.343 261.696 210.029 261.422 210.747C261.161 211.466 260.631 212.302 259.834 213.256C259.011 214.262 257.698 215.523 255.895 217.039H262.363V218.568ZM266.224 211.512C266.224 215.314 267.4 217.216 269.752 217.216C272.104 217.216 273.28 215.314 273.28 211.512C273.28 207.722 272.104 205.828 269.752 205.828C267.4 205.828 266.224 207.722 266.224 211.512ZM264.421 211.512C264.421 210.44 264.512 209.48 264.695 208.631C264.891 207.768 265.185 207.004 265.577 206.337C265.982 205.658 266.538 205.135 267.243 204.769C267.949 204.403 268.785 204.22 269.752 204.22C271.412 204.22 272.686 204.763 273.574 205.847C274.58 207.076 275.084 208.964 275.084 211.512C275.084 212.583 274.985 213.55 274.789 214.413C274.607 215.262 274.313 216.027 273.907 216.706C273.515 217.372 272.967 217.889 272.261 218.254C271.555 218.62 270.719 218.803 269.752 218.803C268.093 218.803 266.819 218.261 265.93 217.176C264.924 215.948 264.421 214.06 264.421 211.512ZM285.964 218.568H277.163V217.137C279.058 215.569 280.424 214.334 281.26 213.433C282.867 211.695 283.671 210.146 283.671 208.787C283.671 207.847 283.377 207.108 282.789 206.572C282.201 206.037 281.397 205.769 280.378 205.769C279.489 205.769 278.49 205.919 277.379 206.22V204.632C278.568 204.358 279.666 204.22 280.672 204.22C282.24 204.22 283.422 204.612 284.22 205.396C285.03 206.167 285.435 207.265 285.435 208.689C285.435 209.343 285.298 210.029 285.023 210.747C284.762 211.466 284.233 212.302 283.435 213.256C282.612 214.262 281.299 215.523 279.496 217.039H285.964V218.568ZM288.1 206.239V204.71C288.479 204.606 289.061 204.495 289.845 204.377C290.485 204.286 291.093 204.24 291.668 204.24C292.857 204.201 293.889 204.527 294.764 205.22C295.64 205.9 296.052 206.749 295.999 207.768C295.999 208.552 295.758 209.271 295.274 209.924C294.791 210.578 294.203 211.054 293.51 211.355C294.372 211.538 295.058 211.995 295.568 212.727C296.091 213.459 296.326 214.099 296.274 214.648C296.274 215.915 295.81 216.928 294.882 217.686C293.954 218.431 292.746 218.803 291.256 218.803C290.772 218.803 290.224 218.777 289.61 218.725C289.035 218.686 288.46 218.633 287.885 218.568V217.078C288.852 217.222 289.93 217.294 291.119 217.294C292.19 217.294 293.02 217.065 293.608 216.608C294.209 216.138 294.51 215.478 294.51 214.628C294.51 213.91 294.196 213.328 293.569 212.884C292.955 212.427 292.203 212.198 291.315 212.198H289.512V210.747H291.236C291.851 210.8 292.517 210.564 293.236 210.042C293.954 209.519 294.301 208.84 294.274 208.003C294.274 206.527 293.288 205.788 291.315 205.788C290.923 205.788 290.361 205.841 289.629 205.945C288.937 206.05 288.427 206.148 288.1 206.239Z" fill="black"/>
<rect x="153.251" y="200" width="27.4408" height="23.5207" rx="4.70414" fill="#0077B6"/>
<path d="M161.197 210.86C161.173 212.183 161.377 213.247 161.81 214.052C162.255 214.858 162.916 215.236 163.794 215.188C164.683 215.188 165.339 214.84 165.759 214.142C166.192 213.433 166.408 212.339 166.408 210.86C166.408 209.394 166.192 208.312 165.759 207.614C165.339 206.917 164.683 206.569 163.794 206.569C162.916 206.569 162.261 206.917 161.828 207.614C161.407 208.312 161.197 209.394 161.197 210.86ZM158.492 210.86C158.492 209.923 158.582 209.069 158.763 208.3C158.955 207.518 159.25 206.809 159.646 206.172C160.043 205.535 160.59 205.042 161.287 204.693C161.997 204.333 162.832 204.152 163.794 204.152C164.756 204.152 165.591 204.333 166.3 204.693C167.01 205.042 167.563 205.535 167.959 206.172C168.368 206.809 168.663 207.518 168.843 208.3C169.035 209.069 169.131 209.923 169.131 210.86C169.131 213.096 168.633 214.809 167.635 216C166.757 217.045 165.477 217.568 163.794 217.568C161.918 217.568 160.524 216.895 159.61 215.549C158.865 214.395 158.492 212.832 158.492 210.86ZM175.291 204.369V217.352H172.713V207.128L170.422 208.083V205.703L173.29 204.369H175.291Z" fill="white"/>
<rect x="185.396" y="200" width="27.4408" height="23.5207" rx="4.70414" fill="#0077B6"/>
<path d="M191.654 210.86C191.63 212.183 191.834 213.247 192.267 214.052C192.712 214.858 193.373 215.236 194.251 215.188C195.14 215.188 195.795 214.84 196.216 214.142C196.649 213.433 196.865 212.339 196.865 210.86C196.865 209.394 196.649 208.312 196.216 207.614C195.795 206.917 195.14 206.569 194.251 206.569C193.373 206.569 192.718 206.917 192.285 207.614C191.864 208.312 191.654 209.394 191.654 210.86ZM188.949 210.86C188.949 209.923 189.039 209.069 189.219 208.3C189.412 207.518 189.706 206.809 190.103 206.172C190.5 205.535 191.047 205.042 191.744 204.693C192.453 204.333 193.289 204.152 194.251 204.152C195.212 204.152 196.048 204.333 196.757 204.693C197.466 205.042 198.019 205.535 198.416 206.172C198.825 206.809 199.119 207.518 199.3 208.3C199.492 209.069 199.588 209.923 199.588 210.86C199.588 213.096 199.089 214.809 198.091 216C197.214 217.045 195.934 217.568 194.251 217.568C192.375 217.568 190.981 216.895 190.067 215.549C189.322 214.395 188.949 212.832 188.949 210.86ZM209.661 217.352H201.186V215.549C204.816 212.676 206.632 210.361 206.632 208.606C206.632 207.897 206.397 207.362 205.928 207.001C205.459 206.629 204.798 206.442 203.945 206.442C203.308 206.442 202.436 206.557 201.33 206.785V204.513C202.508 204.272 203.536 204.152 204.414 204.152C205.099 204.152 205.724 204.224 206.289 204.369C206.854 204.513 207.365 204.747 207.822 205.072C208.291 205.384 208.651 205.823 208.904 206.388C209.156 206.941 209.282 207.602 209.282 208.372C209.282 209.334 208.946 210.349 208.273 211.419C207.623 212.453 206.505 213.673 204.919 215.08H209.661V217.352Z" fill="white"/>
<rect x="217.541" y="200" width="27.4408" height="23.5207" rx="4.70414" fill="#0077B6"/>
<path d="M223.896 210.86C223.872 212.183 224.076 213.247 224.509 214.052C224.954 214.858 225.615 215.236 226.492 215.188C227.382 215.188 228.037 214.84 228.458 214.142C228.891 213.433 229.107 212.339 229.107 210.86C229.107 209.394 228.891 208.312 228.458 207.614C228.037 206.917 227.382 206.569 226.492 206.569C225.615 206.569 224.96 206.917 224.527 207.614C224.106 208.312 223.896 209.394 223.896 210.86ZM221.191 210.86C221.191 209.923 221.281 209.069 221.461 208.3C221.654 207.518 221.948 206.809 222.345 206.172C222.742 205.535 223.289 205.042 223.986 204.693C224.695 204.333 225.531 204.152 226.492 204.152C227.454 204.152 228.29 204.333 228.999 204.693C229.708 205.042 230.261 205.535 230.658 206.172C231.067 206.809 231.361 207.518 231.541 208.3C231.734 209.069 231.83 209.923 231.83 210.86C231.83 213.096 231.331 214.809 230.333 216C229.456 217.045 228.175 217.568 226.492 217.568C224.617 217.568 223.222 216.895 222.309 215.549C221.563 214.395 221.191 212.832 221.191 210.86ZM233.554 217.352V215.152C234.588 215.284 235.567 215.35 236.493 215.35C238.152 215.35 238.982 214.749 238.982 213.547C238.982 213.018 238.771 212.616 238.35 212.339C237.93 212.063 237.377 211.924 236.691 211.924H234.978V209.796H236.565C237.154 209.796 237.665 209.634 238.098 209.31C238.543 208.973 238.765 208.54 238.765 208.011C238.789 207.482 238.561 207.086 238.08 206.821C237.611 206.545 237.088 206.418 236.511 206.442C236.042 206.442 235.513 206.502 234.924 206.623C234.335 206.731 233.89 206.833 233.59 206.929V204.657C234.756 204.333 235.94 204.17 237.142 204.17C238.38 204.17 239.39 204.483 240.172 205.108C240.965 205.721 241.362 206.557 241.362 207.614C241.362 208.252 241.194 208.847 240.857 209.4C240.532 209.953 240.088 210.391 239.523 210.716C240.027 210.848 240.508 211.203 240.965 211.78C241.422 212.345 241.638 212.94 241.614 213.565C241.614 214.323 241.428 215.002 241.055 215.603C240.695 216.156 240.13 216.625 239.36 217.009C238.603 217.382 237.689 217.568 236.619 217.568C235.814 217.568 234.792 217.496 233.554 217.352Z" fill="white"/>
<rect x="77.9852" y="200" width="27.4408" height="23.5207" rx="4.70414" fill="#0077B6"/>
<path d="M81.6707 217.352V215.152C82.7045 215.284 83.6843 215.35 84.61 215.35C86.269 215.35 87.0985 214.749 87.0985 213.547C87.0985 213.018 86.8881 212.616 86.4673 212.339C86.0466 212.063 85.4936 211.924 84.8083 211.924H83.0952V209.796H84.6821C85.2712 209.796 85.7821 209.634 86.2149 209.31C86.6597 208.973 86.8821 208.54 86.8821 208.011C86.9061 207.482 86.6777 207.086 86.1968 206.821C85.728 206.545 85.205 206.418 84.628 206.442C84.1592 206.442 83.6302 206.502 83.0411 206.623C82.4521 206.731 82.0073 206.833 81.7067 206.929V204.657C82.8728 204.333 84.057 204.17 85.2591 204.17C86.4974 204.17 87.5072 204.483 88.2886 205.108C89.082 205.721 89.4788 206.557 89.4788 207.614C89.4788 208.252 89.3104 208.847 88.9738 209.4C88.6493 209.953 88.2045 210.391 87.6394 210.716C88.1443 210.848 88.6252 211.203 89.082 211.78C89.5389 212.345 89.7552 212.94 89.7312 213.565C89.7312 214.323 89.5449 215.002 89.1722 215.603C88.8115 216.156 88.2465 216.625 87.4771 217.009C86.7198 217.382 85.8061 217.568 84.7362 217.568C83.9307 217.568 82.9089 217.496 81.6707 217.352ZM94.113 210.86C94.0889 212.183 94.2933 213.247 94.7261 214.052C95.1709 214.858 95.8321 215.236 96.7097 215.188C97.5993 215.188 98.2544 214.84 98.6752 214.142C99.108 213.433 99.3244 212.339 99.3244 210.86C99.3244 209.394 99.108 208.312 98.6752 207.614C98.2544 206.917 97.5993 206.569 96.7097 206.569C95.8321 206.569 95.1769 206.917 94.7441 207.614C94.3234 208.312 94.113 209.394 94.113 210.86ZM91.4081 210.86C91.4081 209.923 91.4983 209.069 91.6786 208.3C91.8709 207.518 92.1655 206.809 92.5622 206.172C92.9589 205.535 93.5059 205.042 94.2031 204.693C94.9124 204.333 95.7479 204.152 96.7097 204.152C97.6714 204.152 98.5069 204.333 99.2162 204.693C99.9255 205.042 100.478 205.535 100.875 206.172C101.284 206.809 101.578 207.518 101.759 208.3C101.951 209.069 102.047 209.923 102.047 210.86C102.047 213.096 101.548 214.809 100.551 216C99.673 217.045 98.3927 217.568 96.7097 217.568C94.8343 217.568 93.4398 216.895 92.5261 215.549C91.7808 214.395 91.4081 212.832 91.4081 210.86Z" fill="white"/>
<path d="M100.119 243.229L98.0212 239.309L95.7084 240.152V245.64H93.9639V231.528H95.7084V238.447L98.4917 237.369C99.5632 236.977 100.334 236.369 100.805 235.546C101.288 234.722 101.53 233.651 101.53 232.331L101.491 231.528H103.235C103.248 231.645 103.255 232.07 103.255 232.802C103.268 233.207 103.228 233.651 103.137 234.134C103.046 234.605 102.889 235.114 102.667 235.663C102.444 236.199 102.105 236.722 101.647 237.231C101.19 237.741 100.641 238.153 100.001 238.466L99.6481 238.662L101.667 242.347C102.02 242.987 102.392 243.445 102.784 243.719C103.189 243.994 103.745 244.131 104.45 244.131V245.679L103.784 245.699C102.229 245.699 101.007 244.876 100.119 243.229ZM105.468 240.348C105.468 238.728 105.906 237.401 106.781 236.369C107.657 235.337 108.957 234.82 110.682 234.82C112.198 234.82 113.446 235.278 114.426 236.193C115.406 237.094 115.896 238.479 115.896 240.348C115.896 241.968 115.458 243.294 114.582 244.327C113.707 245.359 112.407 245.875 110.682 245.875C109.166 245.875 107.918 245.424 106.938 244.523C105.958 243.608 105.468 242.216 105.468 240.348ZM114.171 240.348C114.21 239.133 113.909 238.146 113.269 237.388C112.642 236.617 111.773 236.251 110.662 236.291C109.525 236.291 108.663 236.643 108.075 237.349C107.487 238.055 107.193 239.054 107.193 240.348C107.154 241.563 107.448 242.556 108.075 243.327C108.715 244.098 109.591 244.457 110.701 244.405C111.838 244.405 112.701 244.052 113.289 243.347C113.877 242.641 114.171 241.641 114.171 240.348ZM123.777 236.526H117.466V235.056H125.973V236.33L119.818 244.19H126.443V245.64H117.584V244.366L123.777 236.526ZM137.561 237.819V245.64H135.895V238.133C135.895 237.571 135.732 237.133 135.405 236.82C135.092 236.493 134.641 236.33 134.053 236.33C133.661 236.33 133.204 236.415 132.681 236.585C132.08 236.781 131.283 237.14 130.29 237.663V245.64H128.624V230.685H130.29V236.31C132.067 235.317 133.478 234.82 134.523 234.82C135.516 234.82 136.268 235.075 136.777 235.585C137.3 236.095 137.561 236.839 137.561 237.819ZM140.549 235.056H142.215V245.64H140.549V235.056ZM140.509 231.292H142.234V233.35H140.509V231.292ZM151.353 235.056H153.019V235.33C153.019 237.604 152.111 239.211 150.294 240.152L151.431 242.171C151.836 242.889 152.235 243.419 152.627 243.758C153.019 244.085 153.469 244.248 153.979 244.248V245.718C153.796 245.745 153.607 245.758 153.411 245.758C152.13 245.758 151.059 244.974 150.196 243.406L148.785 240.818L146.942 241.583V245.64H145.276V230.685H146.942V240.093L148.726 239.368C149.693 238.963 150.373 238.447 150.765 237.819C151.157 237.192 151.353 236.415 151.353 235.487V235.056ZM155.14 240.348C155.14 238.728 155.577 237.401 156.453 236.369C157.328 235.337 158.628 234.82 160.353 234.82C161.869 234.82 163.117 235.278 164.097 236.193C165.077 237.094 165.567 238.479 165.567 240.348C165.567 241.968 165.129 243.294 164.254 244.327C163.378 245.359 162.078 245.875 160.353 245.875C158.837 245.875 157.59 245.424 156.61 244.523C155.63 243.608 155.14 242.216 155.14 240.348ZM163.842 240.348C163.881 239.133 163.581 238.146 162.941 237.388C162.313 236.617 161.444 236.251 160.334 236.291C159.197 236.291 158.334 236.643 157.746 237.349C157.158 238.055 156.864 239.054 156.864 240.348C156.825 241.563 157.119 242.556 157.746 243.327C158.387 244.098 159.262 244.457 160.373 244.405C161.51 244.405 162.372 244.052 162.96 243.347C163.548 242.641 163.842 241.641 163.842 240.348ZM167.487 240.583C167.487 236.741 169.218 234.82 172.681 234.82C173.386 234.82 174.229 234.918 175.209 235.114V230.685H176.875V245.64H175.503L175.327 244.621C173.994 245.444 172.72 245.856 171.505 245.856C170.224 245.856 169.231 245.405 168.525 244.503C167.833 243.602 167.487 242.295 167.487 240.583ZM169.211 240.505C169.211 243.105 170.106 244.405 171.897 244.405C172.864 244.405 173.968 244.013 175.209 243.229V236.545C174.294 236.362 173.491 236.271 172.798 236.271C171.57 236.271 170.662 236.617 170.074 237.31C169.499 237.989 169.211 239.054 169.211 240.505ZM188.507 243.7V245.189C187.135 245.647 185.802 245.875 184.508 245.875C182.796 245.875 181.509 245.424 180.647 244.523C179.797 243.621 179.373 242.223 179.373 240.328C179.373 238.538 179.791 237.173 180.627 236.232C181.463 235.291 182.672 234.82 184.253 234.82C185.756 234.82 186.88 235.245 187.625 236.095C188.369 236.944 188.742 238.244 188.742 239.995V240.799H181.098C181.111 243.19 182.365 244.386 184.861 244.386C186.011 244.386 187.226 244.157 188.507 243.7ZM181.078 239.544H187.017C187.017 237.31 186.07 236.193 184.175 236.193C183.352 236.14 182.62 236.415 181.98 237.016C181.352 237.617 181.052 238.46 181.078 239.544ZM196.503 231.528H201.756C202.867 231.528 203.827 231.828 204.638 232.429C205.461 233.03 205.872 233.906 205.872 235.056C205.899 235.787 205.696 236.467 205.265 237.094C204.834 237.708 204.324 238.153 203.736 238.427C204.585 238.649 205.245 239.054 205.716 239.642C206.186 240.23 206.421 240.936 206.421 241.759C206.421 242.909 206.023 243.843 205.226 244.562C204.429 245.281 203.37 245.64 202.05 245.64H196.503V231.528ZM198.228 244.131H201.952C202.854 244.157 203.533 243.896 203.991 243.347C204.448 242.785 204.657 242.21 204.618 241.622C204.644 241.099 204.5 240.648 204.187 240.269C203.873 239.891 203.501 239.623 203.07 239.466C202.638 239.309 202.207 239.244 201.776 239.27H198.228V244.131ZM198.228 233.056V237.78H201.599C202.135 237.832 202.697 237.617 203.285 237.133C203.886 236.637 204.18 236.016 204.167 235.271C204.167 234.631 203.932 234.102 203.462 233.684C203.004 233.266 202.357 233.056 201.521 233.056H198.228ZM217.429 243.7V245.189C216.057 245.647 214.724 245.875 213.43 245.875C211.719 245.875 210.432 245.424 209.569 244.523C208.72 243.621 208.295 242.223 208.295 240.328C208.295 238.538 208.713 237.173 209.55 236.232C210.386 235.291 211.595 234.82 213.176 234.82C214.678 234.82 215.802 235.245 216.547 236.095C217.292 236.944 217.664 238.244 217.664 239.995V240.799H210.02C210.033 243.19 211.287 244.386 213.783 244.386C214.933 244.386 216.148 244.157 217.429 243.7ZM210 239.544H215.939C215.939 237.31 214.992 236.193 213.097 236.193C212.274 236.14 211.542 236.415 210.902 237.016C210.275 237.617 209.974 238.46 210 239.544ZM223.156 239.427H226.311V238.29C226.311 236.931 225.469 236.251 223.783 236.251C223.339 236.251 222.751 236.304 222.019 236.408C221.235 236.526 220.653 236.637 220.274 236.741V235.271C220.719 235.167 221.359 235.062 222.195 234.958C222.888 234.866 223.541 234.82 224.155 234.82C225.384 234.82 226.331 235.128 226.997 235.742C227.664 236.343 227.997 237.225 227.997 238.388V245.64H226.566L226.429 244.307C225.07 245.261 223.816 245.738 222.666 245.738C221.633 245.738 220.823 245.457 220.235 244.895C219.66 244.333 219.373 243.582 219.373 242.641C219.373 241.622 219.706 240.831 220.372 240.269C221.052 239.708 221.98 239.427 223.156 239.427ZM226.311 243.092V240.681H223.332C222.6 240.681 222.038 240.844 221.646 241.171C221.268 241.485 221.078 241.936 221.078 242.524C221.078 243.098 221.261 243.549 221.627 243.876C222.006 244.203 222.515 244.366 223.156 244.366C223.639 244.366 224.175 244.248 224.763 244.013C225.351 243.765 225.867 243.458 226.311 243.092ZM235.813 244.386C236.767 244.386 237.806 244.209 238.929 243.856V245.366C237.793 245.705 236.675 245.875 235.578 245.875C234.885 245.875 234.245 245.784 233.657 245.601C233.069 245.418 232.52 245.124 232.01 244.719C231.514 244.314 231.115 243.739 230.815 242.994C230.527 242.249 230.384 241.367 230.384 240.348C230.384 238.597 230.808 237.257 231.658 236.33C232.625 235.324 233.931 234.82 235.578 234.82C236.715 234.82 237.832 234.997 238.929 235.35V236.859C237.793 236.493 236.754 236.31 235.813 236.31C234.611 236.31 233.69 236.656 233.049 237.349C232.422 238.042 232.108 239.041 232.108 240.348C232.108 241.681 232.435 242.687 233.088 243.366C233.755 244.046 234.663 244.386 235.813 244.386ZM250.322 237.819V245.64H248.656V238.133C248.656 237.571 248.493 237.133 248.166 236.82C247.853 236.493 247.402 236.33 246.814 236.33C246.422 236.33 245.964 236.415 245.442 236.585C244.841 236.781 244.044 237.14 243.05 237.663V245.64H241.384V230.685H243.05V236.31C244.828 235.317 246.239 234.82 247.284 234.82C248.277 234.82 249.029 235.075 249.538 235.585C250.061 236.095 250.322 236.839 250.322 237.819Z" fill="black"/>
</svg>
