<svg width="695" height="270" viewBox="0 0 695 270" fill="none" xmlns="http://www.w3.org/2000/svg">
<path fill-rule="evenodd" clip-rule="evenodd" d="M187.913 163.641C187.913 169.376 183.205 174.087 177.473 174.087C171.742 174.087 167.034 169.376 167.034 163.641C167.034 163.027 167.034 162.413 167.238 162.003V53.0452C167.034 35.8414 152.909 22.1192 135.715 22.1192C118.725 22.1192 105.01 35.4317 104.396 52.226V99.9462V137.836V187.399V199.483C104.396 200.097 104.601 200.712 104.601 201.326C104.601 207.675 99.8926 212.795 94.1611 212.795C88.4295 212.795 83.7215 207.675 83.7215 201.326C83.7215 200.712 83.7215 200.097 83.9262 199.483L84.1309 130.667V116.945V53.0452C83.7215 35.0221 71.0302 20.6856 52.6074 20.6856C35.4127 20.6856 21.4933 34.4077 21.2886 51.6116V132.511V133.125V199.278C21.4933 199.892 21.4933 200.507 21.4933 201.121C21.4933 207.47 16.7852 212.59 11.0537 212.59C5.32215 212.59 0 207.47 0 201.326C0 200.712 0 200.097 0.204698 199.483V187.604V154.835V125.342V51.8164C0.204698 23.1433 23.5403 0 52.198 0C69.5973 0 84.9496 8.60193 94.3657 21.7096C103.987 9.42116 118.93 1.43365 135.715 1.43365C164.372 1.43365 187.708 24.5769 187.913 53.25V162.208C187.913 162.617 187.913 163.027 187.913 163.641Z" fill="#0077B6"/>
<path fill-rule="evenodd" clip-rule="evenodd" d="M313.188 61.8519C313.188 68.201 308.48 73.3211 302.748 73.3211C297.017 73.3211 292.309 68.201 292.309 61.8519C292.309 61.2375 292.513 52.0211 292.513 52.0211C291.899 42.6 287.191 34.4077 280.232 29.0827C274.909 24.9865 268.359 22.7336 261.195 22.7336C244 22.7336 230.081 36.6606 229.671 53.6596V69.6346H229.876V83.7663H260.99C266.926 83.7663 271.839 88.6817 271.839 94.6211C271.839 100.561 266.926 105.476 260.99 105.476H229.876V146.233C229.876 146.642 229.876 147.052 229.876 147.257C229.876 148.076 229.876 148.895 229.876 149.714C229.876 150.124 229.876 150.329 229.876 150.738C229.876 151.353 229.876 151.762 229.671 152.377C229.671 155.039 229.671 157.907 229.671 160.569C229.262 189.242 206.54 213 177.268 213C148.611 213 125.275 189.857 125.07 161.184V142.137V81.3086V52.226C125.07 51.6115 124.866 50.9971 124.866 50.3827C124.866 44.6481 129.574 39.9375 135.305 39.9375C141.037 39.9375 145.745 44.6481 145.745 50.3827C145.745 50.9971 145.745 51.6115 145.54 52.226V56.5269V70.4538V140.293V161.184C145.54 165.689 146.564 169.786 148.406 173.677C148.815 174.496 157.208 191.7 177.064 191.7C194.258 191.7 208.383 177.568 208.587 160.364V151.967C208.587 151.558 208.587 151.148 208.587 150.738C208.587 150.534 208.587 150.329 208.587 150.124V53.6596C208.792 24.9865 232.128 1.84326 260.785 1.84326C269.997 1.84326 278.594 4.30095 285.963 8.39711C300.497 16.3846 310.732 31.1308 312.574 48.5394L312.779 50.9971C312.779 51.8163 312.779 52.8404 312.779 53.8644C313.188 53.6596 313.188 61.2375 313.188 61.8519Z" fill="#0296C7"/>
<path fill-rule="evenodd" clip-rule="evenodd" d="M62.8423 199.688C62.8423 200.302 63.047 200.916 63.047 201.531C63.047 207.88 58.339 213 52.6074 213C46.8759 213 42.1678 207.88 42.1678 201.531C42.1678 200.916 42.1678 200.302 42.3725 199.688V53.25C42.1678 52.6356 42.1678 52.0212 42.1678 51.4067C42.1678 45.6721 46.8759 40.9615 52.6074 40.9615C58.339 40.9615 63.047 45.6721 63.047 51.4067C63.047 52.0212 63.047 52.6356 62.8423 53.25V199.688Z" fill="#0296C7"/>
<path d="M290.248 83.6563L279.248 94.6626L290.248 105.669L301.249 94.6626L290.248 83.6563Z" fill="#0077B6"/>
<g opacity="0.65">
<mask id="mask0_820_1145" style="mask-type:luminance" maskUnits="userSpaceOnUse" x="41" y="40" width="22" height="94">
<path d="M62.8423 40.9615H41.9631V133.944H62.8423V40.9615Z" fill="white"/>
</mask>
<g mask="url(#mask0_820_1145)">
<path fill-rule="evenodd" clip-rule="evenodd" d="M63.047 51.4067C63.047 52.0212 63.047 52.6356 62.8423 53.25V128.414C55.4732 131.486 48.5135 133.125 42.1678 133.944V53.25C41.9631 52.6356 41.9631 52.0212 41.9631 51.4067C41.9631 45.6721 46.6712 40.9615 52.4027 40.9615C58.1343 40.9615 63.047 45.6721 63.047 51.4067Z" fill="#02B4D7"/>
</g>
</g>
<g opacity="0.65">
<mask id="mask1_820_1145" style="mask-type:luminance" maskUnits="userSpaceOnUse" x="124" y="40" width="22" height="42">
<path d="M145.745 40.1423H124.866V81.5135H145.745V40.1423Z" fill="white"/>
</mask>
<g mask="url(#mask1_820_1145)">
<path fill-rule="evenodd" clip-rule="evenodd" d="M145.745 52.2256V56.5265V70.4535C137.966 72.7064 131.416 76.5977 125.07 81.5131V52.4304C125.07 51.816 124.866 51.2015 124.866 50.7919C124.866 45.0573 129.574 40.3467 135.305 40.3467C141.037 40.3467 145.745 45.0573 145.745 50.7919C145.95 51.2015 145.95 51.816 145.745 52.2256Z" fill="#02B4D7"/>
</g>
</g>
<g opacity="0.65">
<mask id="mask2_820_1145" style="mask-type:luminance" maskUnits="userSpaceOnUse" x="0" y="0" width="188" height="134">
<path d="M187.913 0H0V133.33H187.913V0Z" fill="white"/>
</mask>
<g mask="url(#mask2_820_1145)">
<path fill-rule="evenodd" clip-rule="evenodd" d="M187.913 53.0452V72.2971C180.339 70.0442 173.379 68.6106 167.238 68.201V53.0452C167.034 35.8413 153.114 22.1192 135.919 22.1192C118.93 22.1192 105.215 35.4317 104.601 52.226V99.9462C98.255 105.681 91.7047 111.62 83.9262 117.15V53.25C83.5168 35.2269 70.8255 20.8904 52.4027 20.8904C35.208 20.8904 21.2886 34.6125 20.8792 51.8163V132.715V133.33C12.0772 131.487 5.11745 128.414 0 125.342V51.8163C0.204698 23.1433 23.5403 0 52.198 0C69.5973 0 84.9496 8.60192 94.3657 21.7096C103.987 9.42116 118.93 1.43365 135.715 1.43365C164.372 1.22885 187.503 24.3721 187.913 53.0452Z" fill="#02B4D7"/>
</g>
</g>
<g opacity="0.65">
<mask id="mask3_820_1145" style="mask-type:luminance" maskUnits="userSpaceOnUse" x="208" y="1" width="79" height="79">
<path d="M286.168 1.84326H208.792V79.875H286.168V1.84326Z" fill="white"/>
</mask>
<g mask="url(#mask3_820_1145)">
<path fill-rule="evenodd" clip-rule="evenodd" d="M286.168 8.39711C284.735 13.7221 282.893 21.0952 280.027 29.0827C274.705 24.9865 268.154 22.7336 260.99 22.7336C243.795 22.7336 229.876 36.6606 229.466 53.6596V69.6346H229.671V79.4654C223.53 80.2846 216.57 80.0798 208.792 78.4413V53.6596C208.997 24.9865 232.332 1.84326 260.99 1.84326C270.201 1.84326 278.799 4.30095 286.168 8.39711Z" fill="#02B4D7"/>
</g>
</g>
<path d="M381.11 18.5106L369.651 47.1583L358.192 18.5106H349.188V60.6636H352.871V26.6956L367.604 62.3006L381.928 26.6956V60.6636H389.295V18.5106H381.11Z" fill="black"/>
<path d="M415.078 17.6919L397.889 60.6635H401.573L405.665 50.0229L406.074 49.2044L406.893 46.7489L407.712 44.7026L413.032 31.6065L418.352 44.7026L419.171 46.7489L420.398 49.2044L421.626 52.8877L424.9 60.6635H433.085L415.078 17.6919Z" fill="black"/>
<path d="M449.455 57.3896V18.5106H441.679V60.6636H467.462V57.3896H449.455Z" fill="black"/>
<path d="M486.697 17.6919L469.509 60.6635H473.192L476.875 51.6599L477.694 49.2044L478.921 46.7489V45.9304L484.651 31.6065L490.381 45.9304L492.018 49.2044L493.655 52.8877L496.519 60.6635H504.704L486.697 17.6919Z" fill="black"/>
<path d="M540.718 42.2472C539.081 40.201 537.035 38.9732 534.17 38.1547C536.626 37.7455 538.263 36.5177 539.491 34.8807C540.718 33.2437 541.537 31.6067 541.537 29.1511C541.537 27.1049 541.128 25.4679 539.9 23.8309C539.081 22.1938 537.444 20.9661 535.807 20.1476C534.989 19.7383 533.352 19.3291 531.715 18.9198C530.078 18.5106 528.032 18.5106 525.167 18.5106H512.889V60.2544H527.622C532.533 60.2544 536.626 59.4359 539.081 57.3896C541.537 55.3433 542.765 52.8878 542.765 48.7953C543.174 46.3398 542.355 44.2935 540.718 42.2472ZM521.074 21.3753H524.348C527.622 21.3753 530.487 22.1938 532.124 23.4216C533.761 24.6494 534.58 26.6956 534.58 29.5604C534.58 32.4252 533.761 34.4714 532.533 35.6992C530.896 36.9269 528.85 37.7455 525.167 37.7455H521.484V21.3753H521.074ZM533.352 55.7526C531.715 56.9803 529.259 57.7988 525.985 57.7988H521.074V39.7917H524.758C528.441 39.7917 530.896 40.6102 532.943 42.2472C534.58 43.8843 535.807 46.3398 535.807 49.6138C535.807 52.4785 534.989 54.5248 533.352 55.7526Z" fill="black"/>
<path d="M566.91 17.6919L549.722 60.6635H553.405L557.088 50.8414L557.498 49.2044L558.725 46.7489L559.544 45.1118L564.864 31.6065L570.594 45.5211L572.231 49.2044L572.64 50.8414L576.323 60.6635H584.917L566.91 17.6919Z" fill="black"/>
<path d="M611.928 41.0193C615.202 41.0193 618.067 39.7915 620.113 38.1545C622.16 36.5175 622.978 34.062 622.978 31.1972C622.978 27.1047 621.75 24.2399 618.885 22.1936C616.43 20.1474 612.337 18.9196 607.017 18.9196H593.103V60.6634H600.878V21.3751H604.152C607.836 21.3751 610.7 22.1936 612.337 23.8307C613.974 25.4677 615.202 27.5139 615.202 30.7879C615.202 33.6527 614.384 35.699 612.337 36.9267C610.7 38.1545 607.426 38.973 602.925 39.3823L614.384 60.6634H622.978L611.928 41.0193Z" fill="black"/>
<path d="M356.964 124.507V86.0371H349.188V127.781H375.38V124.507H356.964Z" fill="black"/>
<path d="M391.341 86.0371H383.565V127.781H391.341V86.0371Z" fill="black"/>
<path d="M400.344 86.0371V88.9019H411.394V127.781H419.17V88.9019H430.22V86.0371H400.344Z" fill="black"/>
<path d="M465.007 88.9019V86.0371H439.224V127.781H465.007V124.507H447V107.318H463.779V104.453H447V88.9019H465.007Z" fill="black"/>
<path d="M496.11 108.137C499.384 108.137 502.248 106.909 504.295 105.272C506.341 103.635 507.159 101.179 507.159 98.3147C507.159 94.2222 505.932 91.3574 503.067 89.3111C500.611 87.2649 496.519 86.0371 491.199 86.0371H477.284V127.781H485.06V88.4926H488.334C492.017 88.4926 494.882 89.3112 496.519 90.9482C498.156 92.5852 499.384 94.6314 499.384 97.9055C499.384 100.77 498.565 102.816 496.519 104.044C494.882 105.272 491.608 106.091 487.106 106.5L498.565 127.781H507.159L496.11 108.137Z" fill="black"/>
<path d="M527.622 85.2189L510.434 127.781H514.117L517.391 118.368L518.21 116.731L519.437 113.867L519.847 112.639L520.256 112.23L525.576 98.7243L531.306 113.457L531.715 113.867L532.533 116.731H532.943L533.761 118.778V119.187L537.035 127.781H545.22L527.622 85.2189Z" fill="black"/>
<path d="M545.629 86.0371V88.9019H556.27V127.781H564.046V88.9019H575.095V86.0371H545.629Z" fill="black"/>
<path d="M609.882 86.0371V111.411C609.882 116.322 609.063 119.596 607.836 121.642C606.608 123.688 604.152 124.507 600.878 124.507C597.604 124.507 595.149 123.688 593.921 121.642C592.693 119.596 591.875 116.322 591.875 111.411V86.0371H584.099V112.639C584.099 115.913 584.508 117.959 584.917 120.005C585.327 121.642 586.554 123.279 587.782 124.507C589.01 125.735 590.647 126.962 592.693 127.781C594.739 128.599 596.786 129.009 599.241 129.009C604.152 129.009 607.836 127.781 610.291 124.916C612.747 122.051 613.974 118.368 613.974 112.639V86.0371H609.882Z" fill="black"/>
<path d="M645.896 108.137C649.579 108.137 652.035 106.909 654.081 105.272C656.127 103.635 656.946 101.179 656.946 98.3147C656.946 94.2222 655.718 91.3574 652.853 89.3111C649.988 87.2649 646.305 86.0371 640.985 86.0371H627.07V127.781H634.846V88.4926H638.12C641.803 88.4926 644.259 89.3112 646.305 90.9482C647.942 92.5852 649.17 94.6314 649.17 97.9055C649.17 100.77 648.351 102.816 646.305 104.044C644.668 105.272 641.394 106.091 636.892 106.5L648.351 127.781H656.946L645.896 108.137Z" fill="black"/>
<path d="M694.188 88.9019V86.0371H668.405V127.781H694.188V124.507H676.181V107.318H692.96V104.453H676.181V88.9019H694.188Z" fill="black"/>
<path d="M375.789 156.019V153.155H349.188V194.898H356.964V174.436H374.971V171.571H356.964V156.019H375.789Z" fill="black"/>
<path d="M412.213 156.019V153.155H386.021V194.898H412.213V192.034H393.796V174.845H410.985V171.571H393.796V156.019H412.213Z" fill="black"/>
<path d="M446.59 176.073C444.953 174.436 442.088 172.39 437.586 170.343C434.722 169.116 432.675 167.888 431.448 166.66C430.22 165.432 429.811 164.205 429.811 162.568C429.811 160.521 430.22 158.884 431.857 157.657C433.494 156.429 434.722 155.61 436.768 155.61C438.814 155.61 440.451 156.02 441.679 157.247C442.907 158.475 444.135 159.703 444.953 161.749L447.818 159.703C446.59 157.247 444.953 155.61 442.907 153.973C440.86 152.746 438.405 151.927 435.131 151.927C431.448 151.927 428.174 153.155 425.718 155.61C423.263 158.066 422.035 160.931 422.035 164.614C422.035 167.07 422.853 169.525 424.081 171.162C425.309 172.799 427.764 174.436 431.448 175.664C437.586 178.119 440.86 181.393 440.86 184.667C440.86 186.714 440.042 188.76 438.814 189.988C437.586 191.215 435.54 192.034 433.494 192.034C431.857 192.034 430.22 191.625 428.992 190.397C427.355 189.578 426.537 187.941 425.309 186.304L422.035 188.351C423.672 190.806 425.309 192.443 427.355 193.671C429.401 194.899 431.857 195.308 434.722 195.308C438.814 195.308 442.088 194.08 444.544 191.625C446.999 189.169 448.227 185.895 448.227 182.212C448.636 180.166 448.227 177.71 446.59 176.073Z" fill="black"/>
<path d="M455.185 153.155V156.019H466.235V194.898H474.01V156.019H484.651V153.155H455.185Z" fill="black"/>
<path d="M501.84 153.155H494.064V194.898H501.84V153.155Z" fill="black"/>
<path d="M540.309 153.155L529.669 181.802L518.619 153.155H510.025L527.623 196.126L544.402 153.155H540.309Z" fill="black"/>
<path d="M561.999 152.336L544.811 194.899H548.494L552.177 185.895L552.996 183.849L553.814 181.393L554.224 180.165L559.953 165.842L565.273 179.347L567.32 183.849L568.138 185.486V186.304L571.821 194.899H580.006L561.999 152.336Z" fill="black"/>
<path d="M596.377 192.034V153.155H588.601V194.898H614.384V192.034H596.377Z" fill="black"/>
<path d="M55.0368 262.052H52.5868L42.9368 247.627V262.052H40.7118V244.052H43.1618L52.8368 258.652V244.052H55.0368V262.052ZM58.3392 255.302C58.3392 253.235 58.8975 251.544 60.0142 250.227C61.1308 248.91 62.7892 248.252 64.9892 248.252C66.9225 248.252 68.5142 248.835 69.7642 250.002C71.0142 251.152 71.6392 252.919 71.6392 255.302C71.6392 257.369 71.0808 259.06 69.9642 260.377C68.8475 261.694 67.1892 262.352 64.9892 262.352C63.0558 262.352 61.4642 261.777 60.2142 260.627C58.9642 259.46 58.3392 257.685 58.3392 255.302ZM69.4392 255.302C69.4892 253.752 69.1058 252.494 68.2892 251.527C67.4892 250.544 66.3808 250.077 64.9642 250.127C63.5142 250.127 62.4142 250.577 61.6642 251.477C60.9142 252.377 60.5392 253.652 60.5392 255.302C60.4892 256.852 60.8642 258.119 61.6642 259.102C62.4808 260.085 63.5975 260.544 65.0142 260.477C66.4642 260.477 67.5642 260.027 68.3142 259.127C69.0642 258.227 69.4392 256.952 69.4392 255.302ZM77.8218 262.077L73.1468 248.552H75.4218L79.1468 259.727H79.2718L82.9718 248.552H85.2218L80.4968 262.077H77.8218ZM138.457 262.052H132.582V244.052H138.457C140.99 244.052 143.024 244.844 144.557 246.427C146.107 247.994 146.882 250.21 146.882 253.077C146.882 255.944 146.107 258.16 144.557 259.727C143.024 261.277 140.99 262.052 138.457 262.052ZM142.907 258.177C144.04 256.894 144.607 255.194 144.607 253.077C144.607 250.96 144.04 249.252 142.907 247.952C141.774 246.652 140.207 246.002 138.207 246.002H134.782V260.102H138.207C140.207 260.102 141.774 259.46 142.907 258.177ZM161.079 259.577V261.477C159.329 262.06 157.629 262.352 155.979 262.352C153.795 262.352 152.154 261.777 151.054 260.627C149.97 259.477 149.429 257.694 149.429 255.277C149.429 252.994 149.962 251.252 151.029 250.052C152.095 248.852 153.637 248.252 155.654 248.252C157.57 248.252 159.004 248.794 159.954 249.877C160.904 250.96 161.379 252.619 161.379 254.852V255.877H151.629C151.645 258.927 153.245 260.452 156.429 260.452C157.895 260.452 159.445 260.16 161.079 259.577ZM151.604 254.277H159.179C159.179 251.427 157.97 250.002 155.554 250.002C154.504 249.935 153.57 250.285 152.754 251.052C151.954 251.819 151.57 252.894 151.604 254.277ZM170.733 260.452C171.95 260.452 173.275 260.227 174.708 259.777V261.702C173.258 262.135 171.833 262.352 170.433 262.352C169.55 262.352 168.733 262.235 167.983 262.002C167.233 261.769 166.533 261.394 165.883 260.877C165.25 260.36 164.741 259.627 164.358 258.677C163.991 257.727 163.808 256.602 163.808 255.302C163.808 253.069 164.35 251.36 165.433 250.177C166.666 248.894 168.333 248.252 170.433 248.252C171.883 248.252 173.308 248.477 174.708 248.927V250.852C173.258 250.385 171.933 250.152 170.733 250.152C169.2 250.152 168.025 250.594 167.208 251.477C166.408 252.36 166.008 253.635 166.008 255.302C166.008 257.002 166.425 258.285 167.258 259.152C168.108 260.019 169.266 260.452 170.733 260.452Z" fill="black"/>
<path d="M325.61 262.052H314.385V260.227C316.802 258.227 318.543 256.652 319.61 255.502C321.66 253.285 322.685 251.31 322.685 249.577C322.685 248.377 322.31 247.435 321.56 246.752C320.81 246.069 319.785 245.727 318.485 245.727C317.352 245.727 316.077 245.919 314.66 246.302V244.277C316.177 243.927 317.577 243.752 318.86 243.752C320.86 243.752 322.368 244.252 323.385 245.252C324.418 246.235 324.935 247.635 324.935 249.452C324.935 250.285 324.76 251.16 324.41 252.077C324.077 252.994 323.402 254.06 322.385 255.277C321.335 256.56 319.66 258.169 317.36 260.102H325.61V262.052ZM330.535 253.052C330.535 257.902 332.035 260.327 335.035 260.327C338.035 260.327 339.535 257.902 339.535 253.052C339.535 248.219 338.035 245.802 335.035 245.802C332.035 245.802 330.535 248.219 330.535 253.052ZM328.235 253.052C328.235 251.685 328.351 250.46 328.585 249.377C328.835 248.277 329.21 247.302 329.71 246.452C330.226 245.585 330.935 244.919 331.835 244.452C332.735 243.985 333.801 243.752 335.035 243.752C337.151 243.752 338.776 244.444 339.91 245.827C341.193 247.394 341.835 249.802 341.835 253.052C341.835 254.419 341.71 255.652 341.46 256.752C341.226 257.835 340.851 258.81 340.335 259.677C339.835 260.527 339.135 261.185 338.235 261.652C337.335 262.119 336.268 262.352 335.035 262.352C332.918 262.352 331.293 261.66 330.16 260.277C328.876 258.71 328.235 256.302 328.235 253.052ZM355.713 262.052H344.488V260.227C346.904 258.227 348.646 256.652 349.713 255.502C351.763 253.285 352.788 251.31 352.788 249.577C352.788 248.377 352.413 247.435 351.663 246.752C350.913 246.069 349.888 245.727 348.588 245.727C347.454 245.727 346.179 245.919 344.763 246.302V244.277C346.279 243.927 347.679 243.752 348.963 243.752C350.963 243.752 352.471 244.252 353.488 245.252C354.521 246.235 355.038 247.635 355.038 249.452C355.038 250.285 354.863 251.16 354.513 252.077C354.179 252.994 353.504 254.06 352.488 255.277C351.438 256.56 349.763 258.169 347.463 260.102H355.713V262.052ZM358.437 246.327V244.377C358.921 244.244 359.662 244.102 360.662 243.952C361.479 243.835 362.254 243.777 362.987 243.777C364.504 243.727 365.821 244.144 366.937 245.027C368.054 245.894 368.579 246.977 368.512 248.277C368.512 249.277 368.204 250.194 367.587 251.027C366.971 251.86 366.221 252.469 365.337 252.852C366.437 253.085 367.312 253.669 367.962 254.602C368.629 255.535 368.929 256.352 368.862 257.052C368.862 258.669 368.271 259.96 367.087 260.927C365.904 261.877 364.362 262.352 362.462 262.352C361.846 262.352 361.146 262.319 360.362 262.252C359.629 262.202 358.896 262.135 358.162 262.052V260.152C359.396 260.335 360.771 260.427 362.287 260.427C363.654 260.427 364.712 260.135 365.462 259.552C366.229 258.952 366.612 258.11 366.612 257.027C366.612 256.11 366.212 255.369 365.412 254.802C364.629 254.219 363.671 253.927 362.537 253.927H360.237V252.077H362.437C363.221 252.144 364.071 251.844 364.987 251.177C365.904 250.51 366.346 249.644 366.312 248.577C366.312 246.694 365.054 245.752 362.537 245.752C362.037 245.752 361.321 245.819 360.387 245.952C359.504 246.085 358.854 246.21 358.437 246.327ZM378.91 267.177V242.977H381.06V267.177H378.91ZM399.725 258.977L397.05 253.977L394.1 255.052V262.052H391.875V244.052H394.1V252.877L397.65 251.502C399.017 251.002 400 250.227 400.6 249.177C401.217 248.127 401.525 246.76 401.525 245.077L401.475 244.052H403.7C403.717 244.202 403.725 244.744 403.725 245.677C403.742 246.194 403.692 246.76 403.575 247.377C403.459 247.977 403.259 248.627 402.975 249.327C402.692 250.01 402.259 250.677 401.675 251.327C401.092 251.977 400.392 252.502 399.575 252.902L399.125 253.152L401.7 257.852C402.15 258.669 402.625 259.252 403.125 259.602C403.642 259.952 404.35 260.127 405.25 260.127V262.102L404.4 262.127C402.417 262.127 400.859 261.077 399.725 258.977ZM406.549 255.302C406.549 253.235 407.107 251.544 408.224 250.227C409.34 248.91 410.999 248.252 413.199 248.252C415.132 248.252 416.724 248.835 417.974 250.002C419.224 251.152 419.849 252.919 419.849 255.302C419.849 257.369 419.29 259.06 418.174 260.377C417.057 261.694 415.399 262.352 413.199 262.352C411.265 262.352 409.674 261.777 408.424 260.627C407.174 259.46 406.549 257.685 406.549 255.302ZM417.649 255.302C417.699 253.752 417.315 252.494 416.499 251.527C415.699 250.544 414.59 250.077 413.174 250.127C411.724 250.127 410.624 250.577 409.874 251.477C409.124 252.377 408.749 253.652 408.749 255.302C408.699 256.852 409.074 258.119 409.874 259.102C410.69 260.085 411.807 260.544 413.224 260.477C414.674 260.477 415.774 260.027 416.524 259.127C417.274 258.227 417.649 256.952 417.649 255.302ZM429.902 250.427H421.852V248.552H432.702V250.177L424.852 260.202H433.302V262.052H422.002V260.427L429.902 250.427ZM447.483 252.077V262.052H445.358V252.477C445.358 251.76 445.149 251.202 444.733 250.802C444.333 250.385 443.758 250.177 443.008 250.177C442.508 250.177 441.924 250.285 441.258 250.502C440.491 250.752 439.474 251.21 438.208 251.877V262.052H436.083V242.977H438.208V250.152C440.474 248.885 442.274 248.252 443.608 248.252C444.874 248.252 445.833 248.577 446.483 249.227C447.149 249.877 447.483 250.827 447.483 252.077ZM451.293 248.552H453.418V262.052H451.293V248.552ZM451.243 243.752H453.443V246.377H451.243V243.752ZM465.073 248.552H467.198V248.902C467.198 251.802 466.04 253.852 463.723 255.052L465.173 257.627C465.69 258.544 466.198 259.219 466.698 259.652C467.198 260.069 467.773 260.277 468.423 260.277V262.152C468.19 262.185 467.948 262.202 467.698 262.202C466.065 262.202 464.698 261.202 463.598 259.202L461.798 255.902L459.448 256.877V262.052H457.323V242.977H459.448V254.977L461.723 254.052C462.956 253.535 463.823 252.877 464.323 252.077C464.823 251.277 465.073 250.285 465.073 249.102V248.552ZM469.903 255.302C469.903 253.235 470.461 251.544 471.578 250.227C472.695 248.91 474.353 248.252 476.553 248.252C478.486 248.252 480.078 248.835 481.328 250.002C482.578 251.152 483.203 252.919 483.203 255.302C483.203 257.369 482.645 259.06 481.528 260.377C480.411 261.694 478.753 262.352 476.553 262.352C474.62 262.352 473.028 261.777 471.778 260.627C470.528 259.46 469.903 257.685 469.903 255.302ZM481.003 255.302C481.053 253.752 480.67 252.494 479.853 251.527C479.053 250.544 477.945 250.077 476.528 250.127C475.078 250.127 473.978 250.577 473.228 251.477C472.478 252.377 472.103 253.652 472.103 255.302C472.053 256.852 472.428 258.119 473.228 259.102C474.045 260.085 475.161 260.544 476.578 260.477C478.028 260.477 479.128 260.027 479.878 259.127C480.628 258.227 481.003 256.952 481.003 255.302ZM485.651 255.602C485.651 250.702 487.86 248.252 492.276 248.252C493.176 248.252 494.251 248.377 495.501 248.627V242.977H497.626V262.052H495.876L495.651 260.752C493.951 261.802 492.326 262.327 490.776 262.327C489.143 262.327 487.876 261.752 486.976 260.602C486.093 259.452 485.651 257.785 485.651 255.602ZM487.851 255.502C487.851 258.819 488.993 260.477 491.276 260.477C492.51 260.477 493.918 259.977 495.501 258.977V250.452C494.335 250.219 493.31 250.102 492.426 250.102C490.86 250.102 489.701 250.544 488.951 251.427C488.218 252.294 487.851 253.652 487.851 255.502ZM512.462 259.577V261.477C510.712 262.06 509.012 262.352 507.362 262.352C505.179 262.352 503.537 261.777 502.437 260.627C501.354 259.477 500.812 257.694 500.812 255.277C500.812 252.994 501.345 251.252 502.412 250.052C503.479 248.852 505.02 248.252 507.037 248.252C508.954 248.252 510.387 248.794 511.337 249.877C512.287 250.96 512.762 252.619 512.762 254.852V255.877H503.012C503.029 258.927 504.629 260.452 507.812 260.452C509.279 260.452 510.829 260.16 512.462 259.577ZM502.987 254.277H510.562C510.562 251.427 509.354 250.002 506.937 250.002C505.887 249.935 504.954 250.285 504.137 251.052C503.337 251.819 502.954 252.894 502.987 254.277ZM522.662 244.052H529.362C530.778 244.052 532.003 244.435 533.037 245.202C534.087 245.969 534.612 247.085 534.612 248.552C534.645 249.485 534.387 250.352 533.837 251.152C533.287 251.935 532.637 252.502 531.887 252.852C532.97 253.135 533.812 253.652 534.412 254.402C535.012 255.152 535.312 256.052 535.312 257.102C535.312 258.569 534.803 259.76 533.787 260.677C532.77 261.594 531.42 262.052 529.737 262.052H522.662V244.052ZM524.862 260.127H529.612C530.762 260.16 531.628 259.827 532.212 259.127C532.795 258.41 533.062 257.677 533.012 256.927C533.045 256.26 532.862 255.685 532.462 255.202C532.062 254.719 531.587 254.377 531.037 254.177C530.487 253.977 529.937 253.894 529.387 253.927H524.862V260.127ZM524.862 246.002V252.027H529.162C529.845 252.094 530.562 251.819 531.312 251.202C532.078 250.569 532.453 249.777 532.437 248.827C532.437 248.01 532.137 247.335 531.537 246.802C530.953 246.269 530.128 246.002 529.062 246.002H524.862ZM549.352 259.577V261.477C547.602 262.06 545.902 262.352 544.252 262.352C542.068 262.352 540.427 261.777 539.327 260.627C538.243 259.477 537.702 257.694 537.702 255.277C537.702 252.994 538.235 251.252 539.302 250.052C540.368 248.852 541.91 248.252 543.927 248.252C545.843 248.252 547.277 248.794 548.227 249.877C549.177 250.96 549.652 252.619 549.652 254.852V255.877H539.902C539.918 258.927 541.518 260.452 544.702 260.452C546.168 260.452 547.718 260.16 549.352 259.577ZM539.877 254.277H547.452C547.452 251.427 546.243 250.002 543.827 250.002C542.777 249.935 541.843 250.285 541.027 251.052C540.227 251.819 539.843 252.894 539.877 254.277ZM556.656 254.127H560.681V252.677C560.681 250.944 559.606 250.077 557.456 250.077C556.889 250.077 556.139 250.144 555.206 250.277C554.206 250.427 553.464 250.569 552.981 250.702V248.827C553.548 248.694 554.364 248.56 555.431 248.427C556.314 248.31 557.148 248.252 557.931 248.252C559.498 248.252 560.706 248.644 561.556 249.427C562.406 250.194 562.831 251.319 562.831 252.802V262.052H561.006L560.831 260.352C559.098 261.569 557.498 262.177 556.031 262.177C554.714 262.177 553.681 261.819 552.931 261.102C552.198 260.385 551.831 259.427 551.831 258.227C551.831 256.927 552.256 255.919 553.106 255.202C553.973 254.485 555.156 254.127 556.656 254.127ZM560.681 258.802V255.727H556.881C555.948 255.727 555.231 255.935 554.731 256.352C554.248 256.752 554.006 257.327 554.006 258.077C554.006 258.81 554.239 259.385 554.706 259.802C555.189 260.219 555.839 260.427 556.656 260.427C557.273 260.427 557.956 260.277 558.706 259.977C559.456 259.66 560.114 259.269 560.681 258.802ZM572.8 260.452C574.016 260.452 575.341 260.227 576.775 259.777V261.702C575.325 262.135 573.9 262.352 572.5 262.352C571.616 262.352 570.8 262.235 570.05 262.002C569.3 261.769 568.6 261.394 567.95 260.877C567.316 260.36 566.808 259.627 566.425 258.677C566.058 257.727 565.875 256.602 565.875 255.302C565.875 253.069 566.416 251.36 567.5 250.177C568.733 248.894 570.4 248.252 572.5 248.252C573.95 248.252 575.375 248.477 576.775 248.927V250.852C575.325 250.385 574 250.152 572.8 250.152C571.266 250.152 570.091 250.594 569.275 251.477C568.475 252.36 568.075 253.635 568.075 255.302C568.075 257.002 568.491 258.285 569.325 259.152C570.175 260.019 571.333 260.452 572.8 260.452ZM591.306 252.077V262.052H589.181V252.477C589.181 251.76 588.973 251.202 588.556 250.802C588.156 250.385 587.581 250.177 586.831 250.177C586.331 250.177 585.748 250.285 585.081 250.502C584.314 250.752 583.298 251.21 582.031 251.877V262.052H579.906V242.977H582.031V250.152C584.298 248.885 586.098 248.252 587.431 248.252C588.698 248.252 589.656 248.577 590.306 249.227C590.973 249.877 591.306 250.827 591.306 252.077Z" fill="black"/>
<rect x="185.188" y="239.052" width="35" height="30" rx="6" fill="#0077B6"/>
<path d="M195.068 252.772C195.037 254.459 195.298 255.816 195.85 256.843C196.417 257.87 197.26 258.353 198.38 258.292C199.514 258.292 200.35 257.847 200.887 256.958C201.439 256.053 201.715 254.658 201.715 252.772C201.715 250.901 201.439 249.521 200.887 248.632C200.35 247.743 199.514 247.298 198.38 247.298C197.26 247.298 196.425 247.743 195.873 248.632C195.336 249.521 195.068 250.901 195.068 252.772ZM191.618 252.772C191.618 251.576 191.733 250.487 191.963 249.506C192.208 248.509 192.584 247.605 193.09 246.792C193.596 245.979 194.293 245.351 195.183 244.906C196.087 244.446 197.153 244.216 198.38 244.216C199.606 244.216 200.672 244.446 201.577 244.906C202.481 245.351 203.187 245.979 203.693 246.792C204.214 247.605 204.59 248.509 204.82 249.506C205.065 250.487 205.188 251.576 205.188 252.772C205.188 255.624 204.551 257.809 203.279 259.327C202.159 260.661 200.526 261.328 198.38 261.328C195.988 261.328 194.209 260.469 193.044 258.752C192.093 257.28 191.618 255.287 191.618 252.772ZM213.044 244.492V261.052H209.755V248.011L206.834 249.23V246.194L210.491 244.492H213.044Z" fill="white"/>
<rect x="226.188" y="239.052" width="35" height="30" rx="6" fill="#0077B6"/>
<path d="M234.001 252.772C233.971 254.459 234.231 255.816 234.783 256.843C235.351 257.87 236.194 258.353 237.313 258.292C238.448 258.292 239.284 257.847 239.82 256.958C240.372 256.053 240.648 254.658 240.648 252.772C240.648 250.901 240.372 249.521 239.82 248.632C239.284 247.743 238.448 247.298 237.313 247.298C236.194 247.298 235.358 247.743 234.806 248.632C234.27 249.521 234.001 250.901 234.001 252.772ZM230.551 252.772C230.551 251.576 230.666 250.487 230.896 249.506C231.142 248.509 231.517 247.605 232.023 246.792C232.529 245.979 233.227 245.351 234.116 244.906C235.021 244.446 236.087 244.216 237.313 244.216C238.54 244.216 239.606 244.446 240.51 244.906C241.415 245.351 242.12 245.979 242.626 246.792C243.148 247.605 243.523 248.509 243.753 249.506C243.999 250.487 244.121 251.576 244.121 252.772C244.121 255.624 243.485 257.809 242.212 259.327C241.093 260.661 239.46 261.328 237.313 261.328C234.921 261.328 233.143 260.469 231.977 258.752C231.027 257.28 230.551 255.287 230.551 252.772ZM256.969 261.052H246.159V258.752C250.79 255.087 253.105 252.136 253.105 249.897C253.105 248.992 252.806 248.31 252.208 247.85C251.61 247.375 250.767 247.137 249.678 247.137C248.865 247.137 247.754 247.283 246.343 247.574V244.676C247.846 244.369 249.157 244.216 250.276 244.216C251.15 244.216 251.947 244.308 252.668 244.492C253.389 244.676 254.04 244.975 254.623 245.389C255.221 245.788 255.681 246.347 256.003 247.068C256.325 247.773 256.486 248.617 256.486 249.598C256.486 250.825 256.057 252.12 255.198 253.485C254.37 254.804 252.944 256.36 250.92 258.154H256.969V261.052Z" fill="white"/>
<rect x="267.188" y="239.052" width="35" height="30" rx="6" fill="#0077B6"/>
<path d="M275.125 252.772C275.094 254.459 275.355 255.816 275.907 256.843C276.474 257.87 277.317 258.353 278.437 258.292C279.571 258.292 280.407 257.847 280.944 256.958C281.496 256.053 281.772 254.658 281.772 252.772C281.772 250.901 281.496 249.521 280.944 248.632C280.407 247.743 279.571 247.298 278.437 247.298C277.317 247.298 276.482 247.743 275.93 248.632C275.393 249.521 275.125 250.901 275.125 252.772ZM271.675 252.772C271.675 251.576 271.79 250.487 272.02 249.506C272.265 248.509 272.641 247.605 273.147 246.792C273.653 245.979 274.35 245.351 275.24 244.906C276.144 244.446 277.21 244.216 278.437 244.216C279.663 244.216 280.729 244.446 281.634 244.906C282.538 245.351 283.244 245.979 283.75 246.792C284.271 247.605 284.647 248.509 284.877 249.506C285.122 250.487 285.245 251.576 285.245 252.772C285.245 255.624 284.608 257.809 283.336 259.327C282.216 260.661 280.583 261.328 278.437 261.328C276.045 261.328 274.266 260.469 273.101 258.752C272.15 257.28 271.675 255.287 271.675 252.772ZM287.443 261.052V258.246C288.762 258.415 290.012 258.499 291.192 258.499C293.308 258.499 294.366 257.732 294.366 256.199C294.366 255.524 294.098 255.011 293.561 254.658C293.025 254.305 292.319 254.129 291.445 254.129H289.26V251.415H291.284C292.036 251.415 292.687 251.208 293.239 250.794C293.807 250.365 294.09 249.813 294.09 249.138C294.121 248.463 293.83 247.957 293.216 247.62C292.618 247.267 291.951 247.106 291.215 247.137C290.617 247.137 289.943 247.214 289.191 247.367C288.44 247.505 287.873 247.635 287.489 247.758V244.86C288.977 244.446 290.487 244.239 292.02 244.239C293.6 244.239 294.888 244.638 295.884 245.435C296.896 246.217 297.402 247.283 297.402 248.632C297.402 249.445 297.188 250.204 296.758 250.909C296.344 251.614 295.777 252.174 295.056 252.588C295.7 252.757 296.314 253.209 296.896 253.945C297.479 254.666 297.755 255.425 297.724 256.222C297.724 257.188 297.487 258.054 297.011 258.821C296.551 259.526 295.831 260.124 294.849 260.615C293.883 261.09 292.718 261.328 291.353 261.328C290.326 261.328 289.023 261.236 287.443 261.052Z" fill="white"/>
<rect x="89.188" y="239.052" width="35" height="30" rx="6" fill="#0077B6"/>
<path d="M93.7208 261.052V258.246C95.0394 258.415 96.2891 258.499 97.4698 258.499C99.5858 258.499 100.644 257.732 100.644 256.199C100.644 255.524 100.375 255.011 99.8388 254.658C99.3021 254.305 98.5968 254.129 97.7228 254.129H95.5378V251.415H97.5618C98.3131 251.415 98.9648 251.208 99.5168 250.794C100.084 250.365 100.368 249.813 100.368 249.138C100.398 248.463 100.107 247.957 99.4938 247.62C98.8958 247.267 98.2288 247.106 97.4928 247.137C96.8948 247.137 96.2201 247.214 95.4688 247.367C94.7174 247.505 94.1501 247.635 93.7668 247.758V244.86C95.2541 244.446 96.7644 244.239 98.2978 244.239C99.8771 244.239 101.165 244.638 102.162 245.435C103.174 246.217 103.68 247.283 103.68 248.632C103.68 249.445 103.465 250.204 103.036 250.909C102.622 251.614 102.054 252.174 101.334 252.588C101.978 252.757 102.591 253.209 103.174 253.945C103.756 254.666 104.032 255.425 104.002 256.222C104.002 257.188 103.764 258.054 103.289 258.821C102.829 259.526 102.108 260.124 101.127 260.615C100.161 261.09 98.9954 261.328 97.6308 261.328C96.6034 261.328 95.3001 261.236 93.7208 261.052ZM109.591 252.772C109.56 254.459 109.821 255.816 110.373 256.843C110.94 257.87 111.783 258.353 112.903 258.292C114.037 258.292 114.873 257.847 115.41 256.958C115.962 256.053 116.238 254.658 116.238 252.772C116.238 250.901 115.962 249.521 115.41 248.632C114.873 247.743 114.037 247.298 112.903 247.298C111.783 247.298 110.948 247.743 110.396 248.632C109.859 249.521 109.591 250.901 109.591 252.772ZM106.141 252.772C106.141 251.576 106.256 250.487 106.486 249.506C106.731 248.509 107.107 247.605 107.613 246.792C108.119 245.979 108.816 245.351 109.706 244.906C110.61 244.446 111.676 244.216 112.903 244.216C114.129 244.216 115.195 244.446 116.1 244.906C117.004 245.351 117.71 245.979 118.216 246.792C118.737 247.605 119.113 248.509 119.343 249.506C119.588 250.487 119.711 251.576 119.711 252.772C119.711 255.624 119.074 257.809 117.802 259.327C116.682 260.661 115.049 261.328 112.903 261.328C110.511 261.328 108.732 260.469 107.567 258.752C106.616 257.28 106.141 255.287 106.141 252.772Z" fill="white"/>
</svg>
