<svg width="163" height="90" viewBox="0 0 163 90" fill="none" xmlns="http://www.w3.org/2000/svg">
<rect x="9.29895" y="67.2913" width="6.05833" height="6.05833" transform="rotate(12.5946 9.29895 67.2913)" fill="#E96DB1"/>
<rect x="24.972" y="26.3657" width="6.05833" height="6.05833" transform="rotate(-13.3003 24.972 26.3657)" fill="#C591FE"/>
<rect x="153.08" y="71.7664" width="6.05833" height="6.05833" transform="rotate(12.5946 153.08 71.7664)" fill="#E96DB1"/>
<rect x="143.249" y="43.7471" width="6.05833" height="6.05833" transform="rotate(12.5946 143.249 43.7471)" fill="#F0E0A5"/>
<circle cx="135" cy="71" r="3.75" stroke="#7FCAF7" stroke-width="0.5"/>
<circle cx="135" cy="33" r="3.75" stroke="#47CD75" stroke-width="0.5"/>
<circle cx="30" cy="58" r="3.75" stroke="#47CD75" stroke-width="0.5"/>
<circle cx="4" cy="41" r="3.75" stroke="#27A8D1" stroke-width="0.5"/>
<circle cx="159" cy="55" r="3.75" stroke="#F8A618" stroke-width="0.5"/>
<path d="M99.2296 85.3833C99.224 86.1303 98.4312 86.6075 97.7684 86.2629L80.9685 77.5271C80.684 77.3792 80.3459 77.3767 80.0592 77.5203L63.1358 86.0005C62.4679 86.3351 61.6822 85.8459 61.6877 85.0989L61.9535 49.0376C61.9575 48.4852 62.4086 48.0409 62.961 48.0451L98.5076 48.3191C99.0599 48.3234 99.5042 48.7745 99.5001 49.3268L99.2296 85.3833Z" fill="#8632E2"/>
<path d="M93.8575 87.7806C93.8517 88.5582 92.9994 89.0318 92.3359 88.626L81.0215 81.7064C80.7059 81.5134 80.3097 81.5104 79.9912 81.6985L68.5697 88.4443C67.9002 88.8397 67.0553 88.3531 67.0611 87.5756L67.2833 57.8127C67.2874 57.2604 67.7385 56.8161 68.2908 56.8204L93.0872 57.0105C93.6395 57.0147 94.0838 57.4658 94.0797 58.0181L93.8575 87.7806Z" fill="#A53CF3"/>
<path d="M115.231 34.6205C115.231 36.4116 113.225 38.0281 112.953 39.7474C112.676 41.5076 114.087 43.6631 113.548 45.3259C112.999 47.0143 110.587 47.9278 109.792 49.493C108.987 51.0686 109.659 53.5576 108.622 54.9792C107.581 56.4058 105.01 56.5341 103.763 57.7812C102.517 59.0283 102.393 61.5994 100.962 62.6412C99.5406 63.6779 97.0573 63.0056 95.477 63.8113C93.9172 64.6068 93.0039 67.0188 91.3107 67.568C89.6483 68.1068 87.4985 66.6955 85.7335 66.9726C84.0146 67.2446 82.4035 69.2513 80.6077 69.2513C78.817 69.2513 77.2008 67.2446 75.482 66.9726C73.7221 66.6955 71.5671 68.1068 69.9047 67.568C68.2167 67.0188 67.3034 64.6068 65.7385 63.8113C64.1633 63.0056 61.6748 63.6779 60.2536 62.6412C58.8272 61.5994 58.6989 59.0283 57.4521 57.7812C56.2053 56.5341 53.6347 56.411 52.5932 54.9792C51.5567 53.5576 52.2289 51.0737 51.4233 49.493C50.628 47.9329 48.2165 47.0194 47.6675 45.3259C47.1288 43.6631 48.5398 41.5128 48.2627 39.7474C48.0062 38.0281 46 36.4167 46 34.6205C46 32.8294 48.0062 31.2128 48.2781 29.4936C48.5552 27.7333 47.1442 25.5779 47.6829 23.9151C48.2319 22.2267 50.6434 21.3132 51.4387 19.7479C52.2443 18.1724 51.5721 15.6834 52.6086 14.2618C53.6501 12.8351 56.2207 12.7068 57.4675 11.4598C58.7143 10.2127 58.8374 7.64155 60.2689 6.59976C61.6902 5.56309 64.1735 6.23538 65.7538 5.42966C67.3136 4.6342 68.2269 2.22216 69.9201 1.67303C71.5825 1.13417 73.7323 2.54547 75.4974 2.26835C77.2111 2.00661 78.8222 0 80.6128 0C82.4035 0 84.0197 2.00661 85.7386 2.27861C87.4985 2.55574 89.6534 1.14444 91.3158 1.6833C93.0039 2.23242 93.9172 4.64446 95.4821 5.43992C97.0573 6.24565 99.5458 5.57336 100.967 6.61002C102.393 7.65182 102.522 10.2229 103.768 11.47C105.015 12.7171 107.586 12.8403 108.627 14.2721C109.664 15.6937 108.992 18.1776 109.797 19.7582C110.593 21.3183 113.004 22.2318 113.553 23.9254C114.092 25.5882 112.681 27.7385 112.958 29.5039C113.22 31.218 115.231 32.8294 115.231 34.6205Z" fill="#FFD600"/>
<path d="M80.6127 60.8708C95.1071 60.8708 106.857 49.1181 106.857 34.6206C106.857 20.123 95.1071 8.37036 80.6127 8.37036C66.1183 8.37036 54.3683 20.123 54.3683 34.6206C54.3683 49.1181 66.1183 60.8708 80.6127 60.8708Z" fill="#FFA800"/>
<path d="M80.6128 54.9382C91.8314 54.9382 100.926 45.8417 100.926 34.6206C100.926 23.3995 91.8314 14.303 80.6128 14.303C69.3942 14.303 60.2997 23.3995 60.2997 34.6206C60.2997 45.8417 69.3942 54.9382 80.6128 54.9382Z" fill="#FFD600"/>
<path d="M83.0396 23.8073L84.743 27.2252C85.1381 28.0155 85.8923 28.5646 86.7697 28.6981L90.5409 29.2626C92.7523 29.591 93.6348 32.311 92.0391 33.8763L89.3197 36.55C88.6886 37.171 88.4013 38.0588 88.545 38.9313L89.1761 42.693C89.5455 44.8998 87.2366 46.578 85.251 45.5464L81.8646 43.7862C81.0796 43.3756 80.1457 43.3756 79.3607 43.7862L75.9744 45.5464C73.9887 46.578 71.6798 44.8998 72.0492 42.693L72.6803 38.9313C72.824 38.0588 72.5367 37.171 71.9056 36.55L69.1862 33.8763C67.5905 32.3059 68.473 29.591 70.6844 29.2626L74.4607 28.6981C75.3381 28.5698 76.0924 28.0155 76.4874 27.2252L78.1909 23.8073C79.1863 21.8058 82.0442 21.8058 83.0396 23.8073Z" fill="url(#paint0_linear_142_8151)"/>
<defs>
<linearGradient id="paint0_linear_142_8151" x1="72.9528" y1="27.052" x2="89.8174" y2="45.6978" gradientUnits="userSpaceOnUse">
<stop stop-color="#FCB912"/>
<stop offset="1" stop-color="#ED7324"/>
</linearGradient>
</defs>
</svg>
