<svg width="1440" height="430" viewBox="0 0 1440 430" fill="none" xmlns="http://www.w3.org/2000/svg">
<path fill-rule="evenodd" clip-rule="evenodd" d="M1078.14 1.9555C1067.57 1.48099 1057 1.00667 1046.44 0.524516C1028.27 -0.294887 1006.86 -0.273858 988.234 1.45333C987.517 1.45333 984.275 1.71612 979.024 2.14171C959.469 3.72655 912.06 7.56894 863.472 8.506C842.571 8.90908 817.312 8.19579 793.179 7.51432C771.894 6.91327 751.486 6.33698 735.718 6.5732C693.039 7.16891 650.586 8.63526 608.359 11.0639C577.309 12.851 546.034 12.5761 514.872 12.072C456.386 11.1555 398.465 8.36031 340.882 4.37368C300.687 1.62428 260.831 2.40327 220.749 4.78609C190.264 6.5732 159.667 8.22285 129.069 9.41425C101.745 10.514 74.196 10.1932 46.8725 8.95602C36.3675 8.49922 25.8625 7.94122 15.2249 7.37618C9.85602 7.09101 4.45342 6.80404 -1 6.52738V20.15H-6V430H1443V20.15H1442.63V6.43573C1397.01 3.36556 1351.4 1.21187 1304.88 2.12833C1282.55 2.54669 1260.54 3.81379 1238.51 5.08213C1231.59 5.48089 1224.66 5.87977 1217.72 6.25244C1196.6 7.39802 1175.83 6.52738 1154.94 5.51926C1129.37 4.25448 1103.74 3.10446 1078.14 1.9555Z" fill="#F4FBFF"/>
</svg>
